<?xml version="1.0" standalone="no"?>
<!DOCTYPE svg PUBLIC "-//W3C//DTD SVG 20010904//EN"
 "http://www.w3.org/TR/2001/REC-SVG-20010904/DTD/svg10.dtd">
<svg version="1.0" xmlns="http://www.w3.org/2000/svg"
 width="651.000000pt" height="651.000000pt" viewBox="0 0 651.000000 651.000000"
 preserveAspectRatio="xMidYMid meet">
<metadata>
Created by potrace 1.14, written by Peter Selinger 2001-2017
</metadata>
<g transform="translate(0.000000,651.000000) scale(0.100000,-0.100000)"
fill="#000000" stroke="none">
<path d="M3124 6311 c-2 -3 -42 -6 -87 -7 -143 -5 -258 -17 -281 -31 -5 -4
-26 -8 -45 -9 -44 -3 -88 -11 -98 -17 -5 -3 -26 -8 -48 -11 -80 -13 -98 -17
-114 -25 -9 -5 -29 -11 -46 -14 -36 -6 -238 -69 -245 -77 -3 -3 -12 -7 -20 -9
-8 -2 -19 -4 -25 -6 -10 -2 -53 -18 -85 -32 -8 -3 -17 -7 -20 -8 -3 -1 -32
-14 -65 -30 -33 -15 -63 -27 -67 -27 -5 1 -8 -3 -8 -8 0 -6 -5 -10 -12 -10
-13 0 -100 -40 -108 -50 -10 -11 -60 -40 -70 -40 -6 0 -16 -5 -23 -10 -7 -6
-61 -43 -122 -82 -118 -78 -126 -84 -156 -110 -10 -10 -21 -18 -24 -18 -2 0
-15 -10 -28 -22 -13 -13 -41 -36 -62 -53 -21 -16 -44 -36 -51 -42 -7 -7 -15
-13 -18 -13 -3 0 -14 -8 -24 -17 -10 -10 -33 -30 -52 -45 -19 -16 -30 -28 -24
-28 5 0 -3 -8 -18 -18 -30 -20 -106 -92 -155 -145 -17 -20 -34 -33 -37 -30 -3
4 -6 2 -6 -3 0 -11 -66 -101 -104 -142 -82 -89 -104 -117 -100 -124 3 -4 1 -8
-4 -8 -6 0 -20 -19 -32 -42 -12 -24 -25 -45 -29 -48 -9 -7 -42 -59 -66 -105
-25 -49 -74 -123 -98 -149 -9 -11 -17 -25 -17 -32 0 -6 -7 -17 -15 -24 -8 -7
-13 -16 -10 -20 3 -4 -3 -18 -13 -31 -10 -13 -29 -49 -42 -79 -13 -30 -34 -71
-47 -91 -12 -20 -19 -40 -16 -43 4 -3 2 -6 -4 -6 -6 0 -14 -15 -18 -32 -9 -37
-12 -47 -15 -50 -1 -2 -3 -12 -5 -22 -2 -11 -15 -44 -29 -75 -47 -106 -97
-291 -100 -373 0 -16 -5 -28 -10 -28 -4 0 -5 -7 -2 -16 4 -9 2 -22 -3 -28 -6
-7 -13 -27 -16 -46 -3 -18 -8 -37 -11 -42 -3 -4 1 -8 8 -8 8 0 9 -3 3 -8 -11
-8 -13 -15 -20 -70 -3 -20 -7 -48 -10 -62 -14 -70 -21 -143 -29 -287 -2 -40
-6 -76 -8 -80 -3 -4 -3 -46 -2 -93 6 -208 14 -387 19 -415 3 -16 7 -55 9 -85
3 -30 7 -66 10 -80 3 -14 8 -36 11 -50 3 -14 8 -36 11 -50 3 -14 7 -34 9 -45
5 -33 27 -114 53 -205 14 -47 26 -92 27 -100 0 -9 4 -20 7 -25 5 -9 50 -140
54 -157 1 -5 3 -10 4 -13 1 -3 3 -8 5 -12 13 -46 48 -123 57 -123 4 0 7 -3 5
-8 -4 -14 82 -200 142 -307 93 -166 96 -172 115 -277 2 -15 13 -42 23 -60 28
-50 185 -201 234 -225 103 -51 190 -83 235 -88 27 -3 60 -8 74 -11 14 -3 62
-7 108 -9 81 -3 122 8 163 43 8 7 36 27 64 45 27 17 57 39 65 47 23 23 62 80
55 80 -4 0 0 7 7 15 26 29 38 44 38 49 0 3 13 24 29 48 15 24 36 60 46 81 9
20 21 37 26 37 5 0 9 5 9 11 0 6 13 30 28 53 16 23 35 57 43 75 8 19 31 66 51
105 73 140 108 214 108 228 0 7 9 21 20 31 22 18 70 23 70 7 0 -5 11 -12 24
-16 17 -4 29 -19 41 -52 34 -90 66 -136 149 -207 35 -30 102 -62 166 -79 148
-41 307 3 421 114 31 30 59 62 63 70 3 8 15 30 26 47 33 55 52 150 53 265 0
99 2 110 26 143 28 41 94 75 141 75 82 0 142 -62 148 -152 3 -32 9 -58 14 -58
7 0 7 -4 1 -13 -15 -18 -2 -152 15 -169 6 -6 8 -16 6 -23 -6 -15 44 -107 82
-150 14 -16 31 -37 38 -45 30 -40 139 -99 222 -120 56 -14 191 -6 239 14 80
33 95 41 95 48 0 5 5 8 11 8 18 0 183 159 174 168 -3 3 5 10 18 16 12 6 30 27
39 46 24 47 58 76 96 82 18 2 32 1 32 -3 0 -4 13 -15 29 -25 32 -19 74 -95 97
-175 21 -76 35 -109 45 -109 5 0 8 -3 7 -7 -3 -19 75 -181 100 -209 17 -18 32
-47 31 -60 0 -4 4 -10 11 -14 6 -4 12 -13 14 -21 5 -28 37 -75 91 -134 30 -33
55 -63 55 -67 0 -4 10 -10 21 -13 12 -4 40 -24 63 -45 41 -37 106 -77 106 -64
0 4 6 2 13 -4 10 -9 54 -22 167 -50 29 -8 255 -8 317 -1 47 6 151 65 200 114
17 18 44 57 59 86 15 30 31 56 35 59 14 11 46 133 53 201 5 46 53 147 88 182
15 15 28 30 28 33 0 2 11 17 24 31 13 14 32 44 42 67 10 23 21 43 25 46 10 8
73 134 71 143 -1 4 2 7 7 7 8 0 42 79 47 107 1 7 9 26 17 43 10 19 11 28 4 23
-7 -3 -4 3 6 14 9 11 17 25 17 32 0 6 9 37 21 69 19 51 26 78 44 162 2 14 9
36 14 50 10 26 50 161 56 189 2 9 10 45 19 81 8 36 18 94 22 130 8 82 11 105
14 105 3 0 7 36 14 110 13 141 9 474 -5 512 -4 12 -5 24 0 27 4 3 6 20 5 38
-2 18 -5 56 -8 83 -2 28 -6 61 -10 75 -3 14 -7 39 -10 57 -2 17 -8 39 -14 49
-6 11 -7 27 -2 40 5 12 6 25 2 28 -3 4 -8 19 -9 34 -2 15 -5 43 -7 62 -6 54
-26 133 -38 147 -6 7 -8 13 -5 13 10 0 -41 175 -63 217 -12 23 -23 48 -24 55
-2 7 -8 25 -14 39 -6 15 -24 66 -41 113 -35 98 -112 269 -123 274 -5 2 -8 10
-8 18 0 8 -5 14 -12 14 -6 0 -9 3 -5 6 3 4 -5 23 -18 43 -14 19 -25 39 -25 44
0 4 -18 37 -40 73 -22 36 -40 70 -40 75 0 8 -45 72 -86 122 -8 9 -14 20 -14
23 0 4 -12 21 -27 39 -16 18 -41 50 -58 71 -52 66 -114 133 -157 171 -7 6 -24
27 -38 46 -14 19 -37 43 -52 53 -15 10 -25 20 -23 22 2 2 -15 20 -38 40 -23
20 -58 53 -79 73 -20 20 -62 51 -92 70 -31 19 -56 40 -56 47 0 7 -8 16 -17 19
-18 7 -30 15 -58 41 -8 7 -15 10 -15 5 0 -4 -5 0 -11 10 -5 9 -24 24 -42 33
-18 10 -57 36 -88 60 -31 24 -63 44 -70 46 -8 2 -16 6 -19 10 -3 3 -11 8 -19
10 -8 2 -25 13 -38 25 -13 11 -35 24 -50 28 -14 3 -40 16 -57 29 -17 12 -44
28 -61 36 -16 8 -42 23 -57 33 -16 10 -28 15 -28 11 0 -3 -6 -1 -13 5 -8 6
-17 8 -20 4 -4 -3 -7 -2 -7 4 0 9 -23 19 -60 27 -3 1 -32 14 -65 29 -33 16
-73 31 -90 34 -16 3 -43 12 -58 20 -16 8 -38 16 -48 19 -10 2 -27 6 -38 8 -10
2 -35 9 -54 14 -20 6 -38 8 -41 5 -2 -3 -11 -1 -18 3 -7 5 -17 9 -23 11 -5 1
-21 4 -35 7 -14 3 -36 9 -50 12 -14 3 -33 7 -42 8 -10 1 -21 5 -24 9 -4 4 -20
7 -35 7 -15 0 -39 4 -53 10 -14 5 -45 11 -68 14 -24 2 -50 7 -58 10 -30 12
-141 23 -146 14 -3 -4 -10 -5 -16 -2 -5 4 -33 8 -60 10 -28 2 -62 7 -77 10
-34 7 -290 12 -297 5z"/>
</g>
</svg>
