<svg xmlns="http://www.w3.org/2000/svg" xml:space="preserve" width="245.865" height="234" viewBox="0 0 245.865 234">
  <defs>
    <clipPath id="a" clipPathUnits="userSpaceOnUse">
      <path d="M0 226.772h340.157V0H0Z"/>
    </clipPath>
  </defs>
  <g clip-path="url(#a)" transform="matrix(4.34856 0 0 -4.34856 -987 563.898)" fill="#308BAAFF">
    <path d="M0 0h-6.577a.931.931 0 0 1-.93-.935s.002 0 .002-.006h-.002v-4.693h.002l-.002-.004c0-.514.414-.937.93-.937H0v-3.131h-8.207v.008a2.426 2.426 0 0 0-2.429 2.425v7.98a2.425 2.425 0 0 0 2.429 2.418H0Z" transform="translate(243.818 95.134)"/>
    <path d="M0 0a2.46 2.46 0 0 0-2.462-2.463h-10.556V.71h8.9c.524 0 .944.428.944.949v10.488c0 .523-.42.947-.944.947h-4.783a.944.944 0 0 1-.944-.947V7.374c0-.524.421-.949.944-.949h3.821V3.252h-5.477a2.458 2.458 0 0 0-2.461 2.461v8.094a2.46 2.46 0 0 0 2.461 2.462h8.095A2.462 2.462 0 0 0 0 13.807Z" transform="translate(246.192 103.849)"/>
    <path d="M0 0h-3.128v9.698h-2.198a.931.931 0 0 1-.931-.935V0h-3.128v9.698h-2.199a.932.932 0 0 1-.932-.935V-.008h-3.127v10.413a2.422 2.422 0 0 0 2.426 2.418H0Z" transform="translate(277.298 85.436)"/>
    <path d="M0 0a2.46 2.46 0 0 0-2.461-2.463h-10.557V.71h8.9c.526 0 .948.428.948.949v10.488a.946.946 0 0 1-.948.947H-8.9a.945.945 0 0 1-.941-.947V7.374c0-.524.423-.949.941-.949h3.819V3.252h-5.474a2.46 2.46 0 0 0-2.463 2.461v8.094a2.461 2.461 0 0 0 2.463 2.462h8.094A2.463 2.463 0 0 0 0 13.807Z" transform="translate(277.307 103.849)"/>
    <path d="M0 0v-4.765a.938.938 0 0 0-.936-.95h-4.781a.946.946 0 0 0-.945.95V.008c0 .523.42.946.945.946h4.781A.936.936 0 0 0 0 .008Zm.721 4.129h-8.098a2.46 2.46 0 0 1-2.459-2.462v-8.094a2.458 2.458 0 0 1 2.459-2.461H.721a2.462 2.462 0 0 1 2.46 2.461v8.094a2.463 2.463 0 0 1-2.46 2.462" transform="translate(258.569 115.989)"/>
    <path d="M0 0v-4.693a.933.933 0 0 0-.928-.937c-.005 0-.006.005-.011.005v-.005h-4.692v.005s-.005-.005-.01-.005a.933.933 0 0 0-.93.937V.006c0 .516.414.935.93.935h4.713A.93.93 0 0 0 0 .006Zm.703 4.066h-7.976A2.423 2.423 0 0 1-9.7 1.648v-7.98a2.425 2.425 0 0 1 2.427-2.425H.703a2.425 2.425 0 0 1 2.424 2.425v7.98A2.424 2.424 0 0 1 .703 4.066" transform="translate(256.022 94.194)"/>
    <path d="M0 0c0-.806-.325-1.53-.853-2.059A2.898 2.898 0 0 0-2.91-2.91h-48.315A2.907 2.907 0 0 0-54.135 0v45.578c.002.805.325 1.528.853 2.057a2.901 2.901 0 0 0 2.057.852H-2.91a2.903 2.903 0 0 0 2.057-.852A2.896 2.896 0 0 0 0 45.578Zm-.004 48.485a4.094 4.094 0 0 1-2.906 1.204h-48.315a4.094 4.094 0 0 1-2.906-1.204 4.1 4.1 0 0 1-1.206-2.907V0a4.1 4.1 0 0 1 1.206-2.908 4.1 4.1 0 0 1 2.906-1.205H-2.91A4.1 4.1 0 0 1-.004-2.908 4.1 4.1 0 0 1 1.202 0v45.578a4.1 4.1 0 0 1-1.206 2.907" transform="translate(282.308 79.985)"/>
  </g>
</svg>
